<svg fill="#515151" version="1.1" id="Capa_1" xmlns="http://www.w3.org/2000/svg" xmlns:xlink="http://www.w3.org/1999/xlink" width="99px" height="99px" viewBox="0 0 59.334 59.334" xml:space="preserve" stroke="#515151" stroke-width="0.05933400000000001"><g id="SVGRepo_bgCarrier" stroke-width="0"></g><g id="SVGRepo_tracerCarrier" stroke-linecap="round" stroke-linejoin="round"></g><g id="SVGRepo_iconCarrier"> <g> <g> <path d="M20.003,18.234c-1.102,0-1.286,0.592-1.47,1.45l-1.47,6.535h-0.042l-1.286-5.943c-0.266-1.185-0.552-2.083-1.961-2.042 c-1.389-0.041-1.634,0.878-1.879,2.042l-1.266,5.943h-0.041l-1.572-6.535c-0.205-0.858-0.368-1.45-1.471-1.45 c-0.756,0-1.451,0.612-1.451,1.389c0,0.449,0.104,0.776,0.205,1.103l2.186,7.107c0.428,1.409,0.756,1.613,1.939,1.613 c1.246,0,1.553-0.368,1.859-1.552l1.47-5.861h0.041l1.47,5.861c0.307,1.184,0.613,1.552,1.859,1.552 c1.185,0,1.512-0.204,1.94-1.613l2.185-7.107c0.103-0.326,0.205-0.653,0.205-1.103C21.454,18.847,20.759,18.234,20.003,18.234z"></path> <path d="M35.896,18.234c-1.103,0-1.287,0.592-1.471,1.45l-1.47,6.535h-0.041l-1.287-5.943c-0.267-1.185-0.551-2.083-1.961-2.042 c-1.389-0.041-1.634,0.878-1.879,2.042l-1.266,5.943h-0.041l-1.572-6.535c-0.205-0.858-0.368-1.45-1.471-1.45 c-0.756,0-1.45,0.612-1.45,1.389c0,0.449,0.103,0.776,0.204,1.103l2.186,7.107c0.429,1.409,0.756,1.613,1.939,1.613 c1.246,0,1.553-0.368,1.859-1.552l1.47-5.861h0.042l1.47,5.861c0.306,1.184,0.611,1.552,1.857,1.552 c1.186,0,1.512-0.204,1.94-1.613l2.185-7.107c0.104-0.326,0.205-0.653,0.205-1.103C37.348,18.847,36.652,18.234,35.896,18.234z"></path> <path d="M51.789,18.234c-1.104,0-1.286,0.592-1.471,1.45l-1.471,6.535h-0.041l-1.287-5.943c-0.266-1.185-0.551-2.083-1.961-2.042 c-1.389-0.041-1.633,0.878-1.879,2.042l-1.266,5.943h-0.041l-1.572-6.535c-0.205-0.858-0.367-1.45-1.471-1.45 c-0.756,0-1.45,0.612-1.45,1.389c0,0.449,0.103,0.776,0.204,1.103l2.186,7.107c0.43,1.409,0.756,1.613,1.939,1.613 c1.246,0,1.553-0.368,1.859-1.552l1.47-5.861h0.042l1.47,5.861c0.308,1.184,0.612,1.552,1.858,1.552 c1.185,0,1.512-0.204,1.939-1.613l2.186-7.107c0.103-0.326,0.205-0.653,0.205-1.103C53.238,18.847,52.545,18.234,51.789,18.234z"></path> <path d="M56.535,38.607c0.553,0,1-0.447,1-1V8.75c0-0.552-0.447-1-1-1h-53c-0.553,0-1,0.448-1,1v28.858c0,0.553,0.447,1,1,1 H56.535z M4.535,9.75h51v26.858h-51V9.75z"></path> <path d="M58.334,1.641H1c-0.553,0-1,0.448-1,1V5.75c0,0.552,0.447,1,1,1h57.334c0.553,0,1-0.448,1-1V2.641 C59.334,2.087,58.887,1.641,58.334,1.641z M57.334,4.75H2V3.641h55.334V4.75z"></path> <path d="M58.334,39.607H1c-0.553,0-1,0.448-1,1v3.109c0,0.552,0.447,1,1,1h17.729l-3.16,11.715 c-0.144,0.533,0.172,1.082,0.705,1.227c0.088,0.023,0.175,0.035,0.262,0.035c0.44,0,0.844-0.295,0.965-0.74l3.301-12.236h18.181 l4.104,12.292c0.14,0.418,0.529,0.685,0.948,0.685c0.104,0,0.212-0.018,0.316-0.053c0.523-0.175,0.807-0.742,0.631-1.266 l-3.894-11.659h17.244c0.553,0,1-0.448,1-1v-3.109C59.334,40.056,58.887,39.607,58.334,39.607z M57.334,42.718H2v-1.108h55.334 V42.718z"></path> </g> </g> </g></svg>